<?xml version="1.0" standalone="no"?><!DOCTYPE svg PUBLIC "-//W3C//DTD SVG 1.1//EN" "http://www.w3.org/Graphics/SVG/1.1/DTD/svg11.dtd"><svg t="1597390554459" class="icon" viewBox="0 0 1024 1024" version="1.1" xmlns="http://www.w3.org/2000/svg" p-id="3238" xmlns:xlink="http://www.w3.org/1999/xlink" width="200" height="200"><defs><style type="text/css"></style></defs><path fill="#fff" d="M827.7 777.2L724 673.5C839.9 534 832.6 326 701.9 195.3c-138.6-138.6-364.1-138.6-502.7 0s-138.6 364.1 0 502.7C330 828.6 538 835.9 677.5 720l103.7 103.7c12.8 12.8 33.6 12.8 46.5 0s12.8-33.6 0-46.5z m-582-125.8c-113-113-113-296.8 0-409.7s296.8-113 409.7 0 113 296.8 0 409.7-296.7 113-409.7 0z" p-id="3239"></path></svg>